<?xml version="1.0" encoding="UTF-8"?>
<svg id="dist" xmlns="http://www.w3.org/2000/svg" version="1.1" viewBox="0 0 64 64">
  <defs>
    <style>
      .cls-1 {
        fill: #4e4ec6;
      }

      .cls-1, .cls-2 {
        stroke-width: 0px;
      }

      .cls-2 {
        fill: #fd4e4e;
      }
    </style>
  </defs>
  <path class="cls-1" d="M35.7,47c0-2-1.6-3.7-3.7-3.7s-3.7,1.6-3.7,3.7,1.6,3.7,3.7,3.7,3.7-1.6,3.7-3.7M35.7,17c0-2-1.6-3.7-3.7-3.7s-3.7,1.6-3.7,3.7,1.6,3.7,3.7,3.7,3.7-1.6,3.7-3.7M32,62c8.3,0,15-6.7,15-15s-6.7-15-15-15-15-6.7-15-15S23.7,2,32,2c16.6,0,30,13.4,30,30s-13.4,30-30,30"/>
  <path class="cls-2" d="M28.3,17c0,2,1.6,3.7,3.7,3.7s3.7-1.6,3.7-3.7-1.6-3.7-3.7-3.7-3.7,1.6-3.7,3.7M28.3,47c0,2,1.6,3.7,3.7,3.7s3.7-1.6,3.7-3.7-1.6-3.7-3.7-3.7-3.7,1.6-3.7,3.7M32,2c-8.3,0-15,6.7-15,15s6.7,15,15,15,15,6.7,15,15-6.7,15-15,15c-16.6,0-30-13.4-30-30S15.4,2,32,2"/>
</svg>